<?xml version="1.0" encoding="UTF-8" standalone="no"?>
<svg
   xmlns:dc="http://purl.org/dc/elements/1.1/"
   xmlns:cc="http://creativecommons.org/ns#"
   xmlns:rdf="http://www.w3.org/1999/02/22-rdf-syntax-ns#"
   xmlns:svg="http://www.w3.org/2000/svg"
   xmlns="http://www.w3.org/2000/svg"
   xmlns:sodipodi="http://sodipodi.sourceforge.net/DTD/sodipodi-0.dtd"
   xmlns:inkscape="http://www.inkscape.org/namespaces/inkscape"
   version="1.1"
   id="svg4092"
   width="64"
   height="64"
   viewBox="0 0 64 64"
   sodipodi:docname="Blueprint_OFF.svg"
   inkscape:version="1.0 (4035a4fb49, 2020-05-01)">
  <metadata
     id="metadata4098">
    <rdf:RDF>
      <cc:Work
         rdf:about="">
        <dc:format>image/svg+xml</dc:format>
        <dc:type
           rdf:resource="http://purl.org/dc/dcmitype/StillImage" />
        <dc:title />
      </cc:Work>
    </rdf:RDF>
  </metadata>
  <defs
     id="defs4096" />
  <sodipodi:namedview
     inkscape:document-rotation="0"
     pagecolor="#ffffff"
     bordercolor="#666666"
     borderopacity="1"
     objecttolerance="10"
     gridtolerance="10"
     guidetolerance="10"
     inkscape:pageopacity="0"
     inkscape:pageshadow="2"
     inkscape:window-width="1920"
     inkscape:window-height="1017"
     id="namedview4094"
     showgrid="false"
     inkscape:pagecheckerboard="true"
     inkscape:zoom="5.7421875"
     inkscape:cx="42.099974"
     inkscape:cy="18.539944"
     inkscape:window-x="-8"
     inkscape:window-y="-8"
     inkscape:window-maximized="1"
     inkscape:current-layer="layer7" />
  <g
     inkscape:groupmode="layer"
     id="layer6"
     inkscape:label="Activated"
     style="display:none">
    <circle
       cx="32"
       cy="32"
       r="28.955103"
       id="circle4114"
       style="fill:#dfff00;fill-opacity:1;stroke-width:0" />
  </g>
  <g
     inkscape:groupmode="layer"
     id="layer7"
     inkscape:label="Details">
    <text
       id="text15"
       y="41.171471"
       x="8.3718233"
       style="font-weight:300;font-size:25.8014px;line-height:1.25;font-family:Roboto;-inkscape-font-specification:'Roboto Light';stroke-width:0.806293"
       xml:space="preserve"><tspan
         style="stroke-width:0.806293"
         y="41.171471"
         x="8.3718233"
         id="tspan13"
         sodipodi:role="line">OFF</tspan></text>
  </g>
  <g
     inkscape:groupmode="layer"
     id="layer5"
     inkscape:label="Ring">
    <path
       id="path4110"
       style="fill:#ffffff;stroke-width:0"
       d="M 31.765625 3.0449219 A 28.955103 28.955103 0 0 0 3.0449219 32 A 28.955103 28.955103 0 0 0 32 60.955078 A 28.955103 28.955103 0 0 0 60.955078 32 A 28.955103 28.955103 0 0 0 32 3.0449219 A 28.955103 28.955103 0 0 0 31.765625 3.0449219 z M 32 6.7011719 A 25.29796 25.29796 0 0 1 57.298828 32 A 25.29796 25.29796 0 0 1 32 57.298828 A 25.29796 25.29796 0 0 1 6.7011719 32 A 25.29796 25.29796 0 0 1 32 6.7011719 z " />
  </g>
</svg>
